<svg xmlns="http://www.w3.org/2000/svg" width="55.784" height="55.784" viewBox="0 0 55.784 55.784">
  <g id="Group_17" data-name="Group 17" transform="translate(-69.183 -335.038)">
    <rect id="Rectangle_9" data-name="Rectangle 9" width="55.784" height="55.784" rx="20" transform="translate(69.183 335.038)" fill="#0093dd"/>
    <g id="hospital-buildings" transform="translate(79.794 349.782)">
      <path id="Path_18" data-name="Path 18" d="M33.745,36.773a1.261,1.261,0,0,0,.066-.4v-14.7a1.262,1.262,0,0,0-1.262-1.261H25.526V36.057a2.116,2.116,0,0,1-.126.715h-.824a1.261,1.261,0,0,0,.066-.4V16.187a1.262,1.262,0,0,0-1.262-1.261H12.363A1.261,1.261,0,0,0,11.1,16.187V36.372a1.261,1.261,0,0,0,.066.4h-.823a2.116,2.116,0,0,1-.126-.715V20.414H3.364A1.261,1.261,0,0,0,2.1,21.676v14.7a1.271,1.271,0,0,0,.065.4H0V39.38H35.745V36.773ZM5.887,31.62H4.079V29.812H5.887Zm0-3.174H4.079V26.638H5.887Zm0-3.07H4.079V23.568H5.887ZM8.7,31.62H6.9V29.812H8.7Zm0-3.174H6.9V26.638H8.7Zm0-3.07H6.9V23.568H8.7ZM20.679,36.688H15.37V30.065h5.309Zm-2.807-12.3a4.447,4.447,0,1,1,4.447-4.447A4.447,4.447,0,0,1,17.872,24.387Zm11.48,7.233H27.545V29.812h1.808Zm0-3.174H27.545V26.638h1.808Zm0-3.07H27.545V23.568h1.808ZM32.17,31.62H30.362V29.812H32.17Zm0-3.174H30.362V26.638H32.17Zm0-3.07H30.362V23.568H32.17ZM18.976,18.837h1.7v2.207h-1.7v1.7H16.768v-1.7h-1.7V18.837h1.7v-1.7h2.207Z" transform="translate(0 -14.926)" fill="#fff"/>
    </g>
  </g>
</svg>
