<svg xmlns="http://www.w3.org/2000/svg" width="55.784" height="55.784" viewBox="0 0 55.784 55.784">
  <g id="Group_16" data-name="Group 16" transform="translate(-155.608 -335.038)">
    <rect id="Rectangle_10" data-name="Rectangle 10" width="55.784" height="55.784" rx="20" transform="translate(155.608 335.038)" fill="#0093dd"/>
    <g id="list" transform="translate(169.064 351.001)">
      <g id="Group_3" data-name="Group 3" transform="translate(0 0)">
        <path id="Path_12" data-name="Path 12" d="M6.817,201H1.573a1.517,1.517,0,0,0-1.114.459A1.517,1.517,0,0,0,0,202.572v3.146a1.516,1.516,0,0,0,.459,1.114,1.517,1.517,0,0,0,1.114.459H6.817a1.566,1.566,0,0,0,1.573-1.573v-3.146A1.566,1.566,0,0,0,6.817,201Z" transform="translate(0 -192.609)" fill="#fff"/>
        <path id="Path_13" data-name="Path 13" d="M6.817,54.814H1.573a1.517,1.517,0,0,0-1.114.459A1.517,1.517,0,0,0,0,56.387v3.146a1.517,1.517,0,0,0,.459,1.114,1.518,1.518,0,0,0,1.114.459H6.817A1.566,1.566,0,0,0,8.39,59.534V56.387a1.566,1.566,0,0,0-1.573-1.573Z" transform="translate(0 -54.814)" fill="#fff"/>
        <path id="Path_14" data-name="Path 14" d="M6.817,347.177H1.573a1.517,1.517,0,0,0-1.114.459A1.517,1.517,0,0,0,0,348.75V351.9a1.516,1.516,0,0,0,.459,1.114,1.517,1.517,0,0,0,1.114.459H6.817A1.566,1.566,0,0,0,8.39,351.9V348.75a1.567,1.567,0,0,0-1.573-1.573Z" transform="translate(0 -330.397)" fill="#fff"/>
        <path id="Path_15" data-name="Path 15" d="M200.029,201H184.3a1.566,1.566,0,0,0-1.573,1.573v3.146a1.566,1.566,0,0,0,1.573,1.573h15.731a1.567,1.567,0,0,0,1.573-1.573v-3.146A1.567,1.567,0,0,0,200.029,201Z" transform="translate(-172.238 -192.609)" fill="#fff"/>
        <path id="Path_16" data-name="Path 16" d="M200.029,347.177H184.3a1.566,1.566,0,0,0-1.573,1.573V351.9a1.566,1.566,0,0,0,1.573,1.573h15.731A1.566,1.566,0,0,0,201.6,351.9V348.75a1.567,1.567,0,0,0-1.573-1.573Z" transform="translate(-172.238 -330.397)" fill="#fff"/>
        <path id="Path_17" data-name="Path 17" d="M201.143,55.277a1.517,1.517,0,0,0-1.114-.459H184.3a1.566,1.566,0,0,0-1.573,1.573v3.146A1.566,1.566,0,0,0,184.3,61.11h15.731a1.567,1.567,0,0,0,1.573-1.573V56.391A1.516,1.516,0,0,0,201.143,55.277Z" transform="translate(-172.238 -54.818)" fill="#fff"/>
      </g>
    </g>
  </g>
</svg>
