<svg xmlns="http://www.w3.org/2000/svg" width="55.784" height="55.784" viewBox="0 0 55.784 55.784">
  <g id="Group_60" data-name="Group 60" transform="translate(-274 -417.178)">
    <rect id="Rectangle_11" data-name="Rectangle 11" width="55.784" height="55.784" rx="20" transform="translate(274 417.178)" fill="#dd127b"/>
    <g id="gear-option" transform="translate(286 428.924)">
      <g id="Group_8" data-name="Group 8" transform="translate(0 0)">
        <g id="Group_7" data-name="Group 7" transform="translate(0 0)">
          <path id="Path_19" data-name="Path 19" d="M28.088,15.727l-.154-.055-.6-1.436.065-.148c1.822-4.132,1.7-4.256,1.394-4.555l-2.43-2.371A.649.649,0,0,0,25.937,7C25.8,7,25.387,7,21.8,8.621l-.144.065-1.481-.6-.059-.147c-1.688-4.18-1.861-4.18-2.281-4.18H14.4c-.418,0-.609,0-2.174,4.187l-.059.152-1.473.6-.141-.059A22.684,22.684,0,0,0,6.334,7.1a.652.652,0,0,0-.425.166L3.476,9.643c-.309.3-.437.432,1.481,4.478l.07.15-.6,1.434-.147.057C0,17.415,0,17.577,0,18.007v3.363c0,.432,0,.611,4.286,2.147l.153.054.6,1.43-.065.146c-1.822,4.134-1.706,4.246-1.4,4.555l2.427,2.374a.668.668,0,0,0,.428.168c.136,0,.549,0,4.141-1.625l.144-.067,1.482.6.058.148c1.689,4.178,1.863,4.178,2.283,4.178h3.433c.431,0,.61,0,2.176-4.19l.058-.153,1.476-.6.14.057a22.557,22.557,0,0,0,4.213,1.546.652.652,0,0,0,.427-.166L28.9,29.593c.307-.306.434-.431-1.487-4.473l-.071-.152.6-1.428.144-.056c4.284-1.662,4.284-1.824,4.284-2.255V17.868C32.375,17.436,32.375,17.258,28.088,15.727Zm-11.9,9.347a5.454,5.454,0,1,1,5.561-5.454A5.516,5.516,0,0,1,16.187,25.075Z" transform="translate(0 -3.762)" fill="#fff"/>
        </g>
      </g>
    </g>
  </g>
</svg>
