<svg id="user_1_" data-name="user (1)" xmlns="http://www.w3.org/2000/svg" width="20.409" height="20.409" viewBox="0 0 20.409 20.409">
  <path id="Path_4" data-name="Path 4" d="M131.512,335.266a5.174,5.174,0,0,0-5.168,5.168c0,.165.008.328.023.489a10.23,10.23,0,0,0,10.29,0c.015-.161.023-.324.023-.489A5.174,5.174,0,0,0,131.512,335.266Zm0,0" transform="translate(-121.308 -321.902)" fill="#5a5a5a"/>
  <path id="Path_5" data-name="Path 5" d="M17.42,2.989A10.2,10.2,0,0,0,2.989,17.42a10.343,10.343,0,0,0,.861.769,6.376,6.376,0,0,1,3.936-5.543,4.44,4.44,0,1,1,4.837,0,6.376,6.376,0,0,1,3.936,5.543,10.371,10.371,0,0,0,.861-.769,10.2,10.2,0,0,0,0-14.431Zm0,0" fill="#5a5a5a"/>
  <path id="Path_6" data-name="Path 6" d="M181.091,145.713a3.245,3.245,0,1,0-3.245,3.245A3.248,3.248,0,0,0,181.091,145.713Zm0,0" transform="translate(-167.642 -136.79)" fill="#5a5a5a"/>
</svg>
